<?xml version="1.0" encoding="utf-8"?>
<!-- Generator: Adobe Illustrator 24.1.3, SVG Export Plug-In . SVG Version: 6.00 Build 0)  -->
<svg version="1.1" id="Laag_1" xmlns="http://www.w3.org/2000/svg" xmlns:xlink="http://www.w3.org/1999/xlink" x="0px" y="0px"
	 viewBox="0 0 595.3 841.9" style="enable-background:new 0 0 595.3 841.9;" xml:space="preserve">
<style type="text/css">
	.st0{fill:#82D0F5;stroke:#7DCCE5;stroke-width:2;stroke-miterlimit:10;}
	.st1{fill:none;stroke:#7DCCE5;stroke-width:2;stroke-miterlimit:10;}
	.st2{fill:#212750;stroke:#27348B;stroke-width:2;stroke-miterlimit:10;}
</style>
<g>
	<defs>
		<rect id="SVGID_1_" x="35.3" y="36" width="236.4" height="133"/>
	</defs>
	<use xlink:href="#SVGID_1_"  style="overflow:visible;fill:#82D0F5;"/>
	<clipPath id="SVGID_2_">
		<use xlink:href="#SVGID_1_"  style="overflow:visible;"/>
	</clipPath>
	<g style="clip-path:url(#SVGID_2_);">
		
			<image style="overflow:visible;" width="1920" height="1080" xlink:href="Home - hamburger.png"  transform="matrix(0.1231 0 0 0.1231 35.3492 35.9823)">
		</image>
	</g>
	<use xlink:href="#SVGID_1_"  style="overflow:visible;fill:none;stroke:#000000;stroke-width:0.5;stroke-miterlimit:10;"/>
</g>
<g>
	<defs>
		<rect id="SVGID_3_" x="34.7" y="227.6" width="237.7" height="133.7"/>
	</defs>
	<clipPath id="SVGID_4_">
		<use xlink:href="#SVGID_3_"  style="overflow:visible;"/>
	</clipPath>
	<g style="clip-path:url(#SVGID_4_);">
		
			<image style="overflow:visible;" width="1920" height="1080" xlink:href="Home.png"  transform="matrix(0.1238 0 0 0.1238 34.7237 227.6177)">
		</image>
	</g>
	<use xlink:href="#SVGID_3_"  style="overflow:visible;fill:none;stroke:#000000;stroke-width:0.5;stroke-miterlimit:10;"/>
</g>
<g>
	<defs>
		<rect id="SVGID_5_" x="313.2" y="228" width="236.4" height="133"/>
	</defs>
	<clipPath id="SVGID_6_">
		<use xlink:href="#SVGID_5_"  style="overflow:visible;"/>
	</clipPath>
	<g style="clip-path:url(#SVGID_6_);">
		
			<image style="overflow:visible;" width="1920" height="1080" xlink:href="Like - Match.png"  transform="matrix(0.1231 0 0 0.1231 313.1566 227.9695)">
		</image>
	</g>
	<use xlink:href="#SVGID_5_"  style="overflow:visible;fill:none;stroke:#000000;stroke-width:0.5;stroke-miterlimit:10;"/>
</g>
<g>
	<defs>
		<rect id="SVGID_7_" x="34.7" y="628.4" width="237.7" height="133.7"/>
	</defs>
	<clipPath id="SVGID_8_">
		<use xlink:href="#SVGID_7_"  style="overflow:visible;"/>
	</clipPath>
	<g style="clip-path:url(#SVGID_8_);">
		
			<image style="overflow:visible;" width="1920" height="1080" xlink:href="Match - list.png"  transform="matrix(0.1238 0 0 0.1238 34.7237 628.3749)">
		</image>
	</g>
	<use xlink:href="#SVGID_7_"  style="overflow:visible;fill:none;stroke:#000000;stroke-width:0.5;stroke-miterlimit:10;"/>
</g>
<g>
	<defs>
		<rect id="SVGID_9_" x="323.7" y="428.3" width="236.4" height="133"/>
	</defs>
	<clipPath id="SVGID_10_">
		<use xlink:href="#SVGID_9_"  style="overflow:visible;"/>
	</clipPath>
	<g style="clip-path:url(#SVGID_10_);">
		
			<image style="overflow:visible;" width="1920" height="1080" xlink:href="Topics - add.png"  transform="matrix(0.1231 0 0 0.1231 323.6725 428.3481)">
		</image>
	</g>
	<use xlink:href="#SVGID_9_"  style="overflow:visible;fill:none;stroke:#000000;stroke-width:0.5;stroke-miterlimit:10;"/>
</g>
<g>
	<defs>
		<rect id="SVGID_11_" x="34.7" y="428" width="237.7" height="133.7"/>
	</defs>
	<clipPath id="SVGID_12_">
		<use xlink:href="#SVGID_11_"  style="overflow:visible;"/>
	</clipPath>
	<g style="clip-path:url(#SVGID_12_);">
		
			<image style="overflow:visible;" width="1920" height="1080" xlink:href="Topics-list.png"  transform="matrix(0.1238 0 0 0.1238 34.7237 427.9963)">
		</image>
	</g>
	<use xlink:href="#SVGID_11_"  style="overflow:visible;fill:none;stroke:#000000;stroke-width:0.5;stroke-miterlimit:10;"/>
</g>
<line class="st0" x1="47.9" y1="47.6" x2="47.9" y2="227.6"/>
<line class="st0" x1="192.9" y1="336.1" x2="313.2" y2="336.1"/>
<polyline class="st1" points="488.7,266.2 488.7,397.6 22.2,397.6 22.2,687.4 34.7,687.4 "/>
<line class="st1" x1="192.9" y1="526.7" x2="323.7" y2="526.7"/>
<path class="st1" d="M519.8,476.7"/>
<line class="st1" x1="272.4" y1="482" x2="519.8" y2="482"/>
<circle class="st2" cx="47.9" cy="45.8" r="1.8"/>
<circle class="st2" cx="192.9" cy="336.1" r="1.8"/>
<circle class="st2" cx="488.7" cy="268" r="1.8"/>
<circle class="st2" cx="192.9" cy="526.7" r="1.8"/>
<circle class="st2" cx="518" cy="482" r="1.8"/>
</svg>
