<svg id="Laag_1" data-name="Laag 1" xmlns="http://www.w3.org/2000/svg" xmlns:xlink="http://www.w3.org/1999/xlink" viewBox="0 0 539.15 726.6"><defs><style>.cls-1,.cls-11,.cls-5{fill:none;}.cls-2{fill:#82d0f5;}.cls-3{clip-path:url(#clip-path);}.cls-4{isolation:isolate;}.cls-5{stroke:#000;stroke-width:0.5px;}.cls-11,.cls-12,.cls-5{stroke-miterlimit:10;}.cls-6{clip-path:url(#clip-path-2);}.cls-7{clip-path:url(#clip-path-3);}.cls-8{clip-path:url(#clip-path-4);}.cls-9{clip-path:url(#clip-path-5);}.cls-10{clip-path:url(#clip-path-6);}.cls-11{stroke:#7dcce5;}.cls-11,.cls-12{stroke-width:2px;}.cls-12{fill:#212750;stroke:#27348b;}</style><clipPath id="clip-path" transform="translate(-21.2 -35.75)"><rect class="cls-1" x="35.3" y="36" width="236.4" height="133"/></clipPath><clipPath id="clip-path-2" transform="translate(-21.2 -35.75)"><rect class="cls-1" x="34.7" y="227.6" width="237.7" height="133.7"/></clipPath><clipPath id="clip-path-3" transform="translate(-21.2 -35.75)"><rect class="cls-1" x="313.2" y="228" width="236.4" height="133"/></clipPath><clipPath id="clip-path-4" transform="translate(-21.2 -35.75)"><rect class="cls-1" x="34.7" y="628.4" width="237.7" height="133.7"/></clipPath><clipPath id="clip-path-5" transform="translate(-21.2 -35.75)"><rect class="cls-1" x="323.7" y="428.3" width="236.4" height="133"/></clipPath><clipPath id="clip-path-6" transform="translate(-21.2 -35.75)"><rect class="cls-1" x="34.7" y="428" width="237.7" height="133.7"/></clipPath></defs><rect id="SVGID" class="cls-2" x="14.1" y="0.25" width="236.4" height="133"/><g class="cls-3"><image class="cls-4" width="1920" height="1080" transform="translate(14.15 0.23) scale(0.12)" xlink:href="Home%20-%20hamburger.png"/></g><rect id="SVGID-2" data-name="SVGID" class="cls-5" x="14.1" y="0.25" width="236.4" height="133"/><g class="cls-6"><image class="cls-4" width="1920" height="1080" transform="translate(13.52 191.87) scale(0.12)" xlink:href="Home.png"/></g><rect id="SVGID-3" data-name="SVGID" class="cls-5" x="13.5" y="191.85" width="237.7" height="133.7"/><g class="cls-7"><image class="cls-4" width="1920" height="1080" transform="translate(291.96 192.22) scale(0.12)" xlink:href="Like%20-%20Match.png"/></g><rect id="SVGID-4" data-name="SVGID" class="cls-5" x="292" y="192.25" width="236.4" height="133"/><g class="cls-8"><image class="cls-4" width="1920" height="1080" transform="translate(13.52 592.62) scale(0.12)" xlink:href="Match%20-%20list.png"/></g><rect id="SVGID-5" data-name="SVGID" class="cls-5" x="13.5" y="592.65" width="237.7" height="133.7"/><g class="cls-9"><image class="cls-4" width="1920" height="1080" transform="translate(302.47 392.6) scale(0.12)" xlink:href="Topics%20-%20add.png"/></g><rect id="SVGID-6" data-name="SVGID" class="cls-5" x="302.5" y="392.55" width="236.4" height="133"/><g class="cls-10"><image class="cls-4" width="1920" height="1080" transform="translate(13.52 392.25) scale(0.12)" xlink:href="Topics-list.png"/></g><rect id="SVGID-7" data-name="SVGID" class="cls-5" x="13.5" y="392.25" width="237.7" height="133.7"/><line class="cls-11" x1="26.7" y1="11.85" x2="26.7" y2="191.85"/><line class="cls-11" x1="171.7" y1="300.35" x2="292" y2="300.35"/><polyline class="cls-11" points="467.5 230.45 467.5 361.85 1 361.85 1 651.65 13.5 651.65"/><line class="cls-11" x1="171.7" y1="490.95" x2="302.5" y2="490.95"/><path class="cls-11" d="M519.8,476.7" transform="translate(-21.2 -35.75)"/><line class="cls-11" x1="251.2" y1="446.25" x2="498.6" y2="446.25"/><circle class="cls-12" cx="26.7" cy="10.05" r="1.8"/><circle class="cls-12" cx="171.7" cy="300.35" r="1.8"/><circle class="cls-12" cx="467.5" cy="232.25" r="1.8"/><circle class="cls-12" cx="171.7" cy="490.95" r="1.8"/><circle class="cls-12" cx="496.8" cy="446.25" r="1.8"/></svg>